<?xml version="1.0" standalone="no"?>
<!DOCTYPE svg PUBLIC "-//W3C//DTD SVG 20010904//EN"
 "http://www.w3.org/TR/2001/REC-SVG-20010904/DTD/svg10.dtd">
<svg version="1.0" xmlns="http://www.w3.org/2000/svg"
 width="683.000000pt" height="1024.000000pt" viewBox="0 0 683.000000 1024.000000"
 preserveAspectRatio="xMidYMid meet">
<metadata>
Created by potrace 1.16, written by Peter Selinger 2001-2019
</metadata>
<g transform="translate(0.000000,1024.000000) scale(0.100000,-0.100000)"
fill="#000000" stroke="none">
<path d="M3255 8678 c-44 -5 -125 -18 -180 -29 -147 -31 -281 -47 -450 -54
-172 -8 -332 -28 -419 -52 -70 -20 -156 -93 -156 -132 0 -13 -9 -38 -20 -57
-13 -20 -27 -71 -35 -131 -12 -82 -19 -100 -37 -113 -53 -34 -160 -146 -165
-172 -4 -19 -26 -42 -74 -77 -88 -65 -140 -132 -225 -293 -38 -72 -82 -147
-98 -167 -25 -32 -27 -42 -22 -85 5 -41 -2 -73 -44 -200 -80 -245 -147 -504
-200 -771 -27 -137 -65 -331 -85 -430 -244 -1236 -313 -1643 -390 -2300 -67
-584 -88 -908 -81 -1268 4 -236 7 -281 20 -291 26 -19 36 -109 36 -328 0 -158
3 -210 13 -213 6 -2 131 -11 277 -20 146 -9 322 -22 392 -29 69 -7 135 -9 146
-5 21 8 40 94 62 283 18 149 26 157 35 31 3 -60 10 -137 13 -170 l7 -60 135 0
c74 1 223 6 330 13 233 14 1041 11 1675 -7 242 -7 670 -11 950 -9 l510 3 16
187 c8 104 19 191 22 195 4 3 7 2 7 -3 1 -5 7 2 15 16 l14 25 15 -37 c15 -34
26 -132 43 -351 4 -60 11 -94 22 -104 16 -17 -11 -17 583 6 109 4 200 9 202
12 2 2 9 94 15 204 13 230 23 289 53 329 21 29 21 38 21 330 0 301 -10 485
-38 711 -9 66 -27 210 -40 320 -45 358 -65 507 -90 665 -30 184 -61 410 -70
500 -6 61 -111 698 -120 730 -6 20 -112 615 -136 765 -42 257 -48 296 -83 475
-19 102 -67 311 -106 465 -39 154 -71 297 -70 317 0 20 -4 39 -10 43 -6 4 -42
71 -80 148 -37 78 -87 170 -110 204 -60 91 -150 167 -252 216 -63 30 -87 47
-88 61 0 10 -18 37 -40 59 -38 37 -40 42 -30 70 16 46 12 116 -9 156 -10 20
-27 56 -37 80 -23 56 -69 89 -176 129 -194 72 -694 161 -1032 182 -103 7 -156
14 -172 25 -25 16 -38 16 -159 3z"/>
</g>
</svg>
