<?xml version="1.0" standalone="no"?>
<!DOCTYPE svg PUBLIC "-//W3C//DTD SVG 20010904//EN"
 "http://www.w3.org/TR/2001/REC-SVG-20010904/DTD/svg10.dtd">
<svg version="1.0" xmlns="http://www.w3.org/2000/svg"
 width="876.000000pt" height="928.000000pt" viewBox="0 0 876.000000 928.000000"
 preserveAspectRatio="xMidYMid meet">
<metadata>
Created by potrace 1.16, written by Peter Selinger 2001-2019
</metadata>
<g transform="translate(0.000000,928.000000) scale(0.100000,-0.100000)"
fill="#000000" stroke="none">
<path d="M5346 8459 c-15 -12 -51 -24 -85 -29 -32 -4 -69 -14 -81 -20 -29 -16
-163 -50 -215 -56 -249 -27 -344 -35 -416 -33 -47 1 -145 -7 -224 -19 -102
-16 -151 -19 -180 -12 -22 5 -69 6 -105 4 -156 -13 -223 -9 -275 15 -41 19
-76 25 -195 32 -141 8 -198 15 -290 37 -117 29 -265 50 -276 41 -8 -7 -25 -3
-53 12 -53 27 -80 20 -111 -31 -14 -22 -45 -71 -69 -108 -24 -37 -73 -114
-107 -172 -35 -58 -83 -136 -107 -175 -24 -38 -56 -104 -72 -145 -15 -41 -53
-129 -85 -195 -61 -127 -80 -176 -100 -265 -16 -69 -140 -444 -175 -528 -14
-35 -37 -112 -51 -170 -29 -123 -108 -517 -129 -642 -14 -84 -37 -182 -68
-290 -8 -30 -23 -98 -32 -150 -9 -52 -26 -130 -37 -173 -15 -57 -17 -81 -9
-91 8 -10 6 -37 -9 -107 -15 -74 -20 -134 -20 -279 0 -119 -6 -215 -15 -270
-25 -138 -30 -422 -11 -580 27 -234 33 -258 70 -277 17 -8 32 -17 34 -18 1 -1
7 -38 12 -83 22 -174 157 -649 248 -872 124 -304 263 -625 332 -765 177 -360
431 -741 507 -759 73 -19 73 -18 199 -361 106 -286 101 -274 119 -281 17 -7
123 27 332 107 84 32 197 70 250 84 54 15 106 31 116 36 29 16 26 46 -38 419
-8 47 -15 124 -15 172 0 87 1 89 43 125 28 22 56 314 57 576 0 119 -4 159 -19
205 -11 31 -32 115 -47 187 -24 110 -33 135 -59 165 -18 19 -49 64 -70 100
-31 52 -39 78 -43 130 -4 63 -1 98 34 345 10 66 20 142 23 170 6 45 8 50 37
56 48 9 51 14 58 86 4 37 9 84 12 104 6 34 4 37 -40 63 -44 26 -46 29 -46 74
0 26 7 88 15 137 8 50 15 107 15 128 0 21 11 59 24 85 13 26 33 80 45 121 13
41 45 119 73 174 38 77 49 108 47 138 -3 29 3 44 21 64 23 25 24 30 26 213 3
187 -3 255 -32 367 -9 33 -14 79 -12 103 l3 43 48 -95 c26 -53 52 -98 58 -101
5 -4 29 -49 53 -100 49 -104 141 -266 192 -335 24 -34 40 -75 61 -160 25 -104
27 -130 26 -280 -2 -134 2 -190 22 -305 13 -77 33 -166 44 -198 11 -32 32
-108 46 -170 14 -62 28 -121 31 -133 4 -15 -3 -27 -30 -47 -19 -15 -42 -27
-50 -27 -9 0 -16 -4 -16 -10 0 -5 -7 -7 -17 -3 -14 6 -15 0 -9 -45 3 -27 12
-68 20 -89 12 -36 16 -38 67 -46 39 -7 63 -17 86 -39 17 -17 42 -36 55 -42 26
-13 43 -69 54 -172 l6 -61 -31 0 c-43 0 -103 -44 -171 -125 l-56 -66 3 -259
c2 -142 8 -294 14 -338 5 -44 14 -141 19 -215 12 -156 34 -282 59 -325 32 -56
32 -73 -6 -164 -20 -47 -53 -149 -75 -226 -21 -77 -50 -176 -64 -219 -14 -44
-23 -85 -20 -92 7 -17 114 -70 246 -122 58 -23 141 -55 185 -73 44 -17 124
-46 177 -64 l97 -33 34 66 c19 37 70 148 112 247 108 251 172 345 232 345 22
0 144 122 190 190 51 76 149 259 203 378 123 275 365 899 459 1184 77 235 151
535 151 609 0 28 5 39 18 44 13 4 23 23 31 61 18 77 16 144 -5 294 -17 124
-17 141 -2 343 16 203 16 219 -3 387 -10 96 -28 218 -39 272 -11 53 -17 109
-14 125 3 16 -5 72 -19 128 -14 55 -32 145 -41 200 -9 55 -25 140 -35 190 -11
55 -15 98 -11 111 5 12 4 39 -1 60 -4 22 -9 56 -9 76 0 20 -5 40 -11 43 -6 4
-8 22 -4 45 4 23 2 41 -4 45 -6 3 -11 27 -11 53 -1 26 -6 74 -13 107 -11 50
-17 61 -35 63 -12 2 -28 15 -36 30 -19 39 -202 775 -226 913 -24 138 -32 163
-100 299 -68 136 -114 214 -161 271 -20 25 -49 74 -64 110 -65 153 -178 340
-292 482 -47 58 -58 67 -87 67 -19 0 -45 -9 -60 -21z"/>
</g>
</svg>
