<?xml version="1.0" standalone="no"?>
<!DOCTYPE svg PUBLIC "-//W3C//DTD SVG 20010904//EN"
 "http://www.w3.org/TR/2001/REC-SVG-20010904/DTD/svg10.dtd">
<svg version="1.0" xmlns="http://www.w3.org/2000/svg"
 width="500.000000pt" height="426.000000pt" viewBox="0 0 500.000000 426.000000"
 preserveAspectRatio="xMidYMid meet">
<metadata>
Created by potrace 1.16, written by Peter Selinger 2001-2019
</metadata>
<g transform="translate(0.000000,426.000000) scale(0.100000,-0.100000)"
fill="#000000" stroke="none">
<path d="M1870 3990 c-36 -4 -101 -8 -146 -9 -87 -1 -138 -15 -277 -76 -191
-85 -213 -98 -348 -201 -104 -79 -180 -165 -245 -274 -39 -66 -44 -81 -44
-135 1 -33 5 -91 11 -130 5 -38 14 -106 19 -150 13 -116 57 -346 86 -447 23
-84 24 -95 16 -242 l-8 -154 -74 -86 c-41 -47 -95 -110 -118 -138 -91 -110
-159 -181 -217 -227 -72 -57 -125 -149 -125 -216 0 -26 -6 -47 -16 -56 -48
-40 -56 -120 -24 -243 41 -155 66 -205 148 -288 63 -64 93 -85 176 -127 190
-93 433 -189 586 -231 25 -7 56 -16 70 -21 14 -5 81 -21 150 -35 69 -14 177
-37 240 -51 209 -45 401 -83 479 -93 228 -32 547 -53 773 -51 181 2 217 7 443
61 211 51 516 192 681 317 280 210 516 456 576 603 26 62 40 156 37 232 -5 92
-32 134 -111 172 -29 13 -71 43 -93 66 -36 38 -123 109 -241 197 -55 41 -85
87 -124 188 -18 44 -42 105 -55 135 -35 83 -39 133 -25 360 12 188 12 220 -3
322 -10 62 -17 172 -17 243 0 72 -4 147 -9 168 -11 48 -106 194 -140 215 -15
9 -59 47 -100 85 -99 93 -156 118 -291 127 -62 5 -124 15 -150 25 -25 10 -72
19 -105 20 -33 1 -100 14 -150 29 -49 15 -110 31 -135 36 -55 11 -251 54 -340
74 -51 12 -133 15 -380 14 -173 -1 -344 -4 -380 -8z"/>
</g>
</svg>
