<?xml version="1.0" standalone="no"?>
<!DOCTYPE svg PUBLIC "-//W3C//DTD SVG 20010904//EN"
 "http://www.w3.org/TR/2001/REC-SVG-20010904/DTD/svg10.dtd">
<svg version="1.0" xmlns="http://www.w3.org/2000/svg"
 width="800.000000pt" height="800.000000pt" viewBox="0 0 800.000000 800.000000"
 preserveAspectRatio="xMidYMid meet">
<metadata>
Created by potrace 1.16, written by Peter Selinger 2001-2019
</metadata>
<g transform="translate(0.000000,800.000000) scale(0.100000,-0.100000)"
fill="#000000" stroke="none">
<path d="M4685 6104 c-33 -7 -103 -14 -155 -15 -266 -6 -693 -31 -765 -46
-147 -29 -169 -32 -282 -32 -146 -1 -138 7 -173 -166 -11 -55 -24 -103 -29
-108 -12 -12 -150 9 -246 38 -245 73 -541 145 -627 152 -105 8 -124 -2 -209
-108 -39 -49 -94 -110 -124 -136 -88 -79 -295 -271 -372 -345 -61 -59 -77 -83
-106 -152 -40 -95 -77 -233 -77 -286 0 -40 56 -269 97 -395 22 -70 26 -101 29
-245 2 -93 11 -208 20 -264 l18 -99 -28 -20 c-44 -32 -48 -56 -30 -175 31
-211 45 -242 110 -242 l32 0 36 -112 c22 -71 46 -126 64 -148 40 -48 56 -81
86 -182 19 -61 25 -98 21 -122 -6 -28 -3 -37 14 -48 34 -21 26 -44 -23 -62
-56 -21 -77 -45 -82 -93 -7 -53 22 -97 72 -110 31 -8 58 -5 127 12 60 14 90
18 96 11 5 -6 8 -36 7 -66 -3 -106 44 -274 90 -316 24 -23 34 -51 13 -38 -18
11 -2 -43 27 -93 31 -54 75 -84 130 -91 24 -2 44 -8 44 -11 0 -4 -9 -35 -21
-69 -20 -58 -22 -61 -45 -51 -49 18 -131 2 -165 -32 -10 -10 -23 -19 -28 -19
-14 0 -60 -95 -67 -139 -11 -67 13 -129 70 -187 65 -64 117 -80 195 -60 96 25
150 102 151 214 0 34 -7 78 -14 97 -8 19 -11 35 -6 35 4 0 24 30 43 68 19 37
42 80 50 95 8 16 25 36 37 44 15 11 20 22 16 37 -7 28 8 55 18 31 7 -19 48
-214 49 -232 0 -7 4 -13 9 -13 4 0 8 -5 8 -11 0 -6 28 -37 63 -70 126 -119
176 -172 181 -193 4 -17 20 -24 93 -39 276 -57 525 -72 1193 -71 683 1 836 13
952 75 15 8 56 12 114 10 l92 -2 40 38 c34 33 44 53 71 143 18 58 45 132 61
165 17 33 36 86 42 118 10 47 18 62 39 73 15 7 36 25 47 39 11 14 25 25 31 25
15 0 15 356 1 373 -6 7 -22 30 -36 51 -24 37 -25 44 -19 125 4 47 7 179 6 292
-1 192 -4 268 -16 394 -19 201 -27 274 -30 300 -3 17 -12 86 -21 155 -18 138
-36 195 -81 261 -50 72 -100 320 -106 517 l-4 153 47 24 c67 34 110 86 110
134 0 23 -8 48 -20 63 -30 38 -113 88 -146 88 -24 0 -30 5 -31 23 -5 58 -39
163 -81 248 -46 92 -49 96 -132 152 -92 63 -237 139 -300 158 -33 10 -43 20
-64 65 -28 59 -81 257 -92 344 -8 63 -19 90 -37 89 -7 -1 -39 -7 -72 -15z
m-2172 -959 c163 -41 168 -43 192 -79 41 -60 56 -96 50 -116 -5 -16 35 -71
102 -139 8 -7 11 -21 8 -30 -4 -9 -10 -36 -15 -61 -15 -90 -50 -250 -60 -275
-6 -15 -10 -36 -10 -49 0 -18 -14 -27 -90 -55 -49 -19 -90 -38 -90 -43 0 -4 0
-10 1 -14 0 -3 -7 -17 -16 -31 -10 -15 -15 -36 -12 -52 4 -21 -6 -40 -50 -94
-58 -72 -62 -97 -17 -97 24 0 25 -2 18 -27 -13 -45 -8 -82 13 -106 14 -15 20
-38 21 -77 2 -59 30 -200 42 -213 4 -5 22 -9 40 -9 l33 -1 -7 -66 c-3 -36 -6
-108 -6 -158 0 -91 -1 -93 -23 -93 -13 0 -31 -8 -40 -18 -26 -29 -67 -149 -67
-197 0 -25 -4 -45 -9 -45 -4 0 -17 30 -27 68 -23 79 -26 265 -5 324 9 29 10
50 2 90 -7 34 -8 73 -2 107 6 40 3 90 -11 190 -21 148 -33 182 -63 191 -18 4
-20 15 -22 84 -1 44 -6 82 -11 85 -11 7 -29 150 -37 286 -8 142 -22 266 -50
450 -27 180 -38 308 -28 318 9 10 50 2 246 -48z m2276 -1715 c49 -24 83 -65
101 -119 12 -37 12 -70 0 -234 -16 -217 -16 -248 -6 -332 4 -36 3 -66 -3 -75
-16 -23 -21 -8 -11 35 5 22 5 42 1 45 -17 11 -18 68 -4 223 15 172 12 297 -9
361 -18 55 -83 96 -153 96 -40 0 -62 -7 -101 -31 -46 -29 -47 -30 -25 -6 53
58 140 73 210 37z m-136 -544 c4 -10 1 -13 -7 -10 -8 3 -17 1 -21 -5 -6 -11 2
-13 72 -15 46 -1 53 15 12 24 -22 6 -23 6 -4 13 14 6 24 2 37 -15 26 -34 22
-48 -13 -48 -34 0 -85 -26 -94 -48 -4 -10 0 -12 11 -8 12 5 14 1 8 -17 -4 -12
-11 -23 -15 -25 -14 -6 -11 -22 4 -19 6 1 12 -6 12 -16 0 -48 111 -81 122 -37
3 11 9 17 14 14 5 -3 9 0 9 5 0 17 24 13 36 -7 7 -10 8 -26 3 -40 -11 -30 -23
-28 -15 3 4 15 2 25 -4 25 -7 0 -10 -17 -8 -42 l3 -43 -65 3 c-78 3 -106 20
-138 85 -20 41 -22 53 -14 92 6 26 6 48 1 51 -16 10 -9 54 11 74 24 24 36 25
43 6z m-2133 -228 c8 -24 14 -56 14 -73 0 -29 -3 -30 -75 -46 -40 -10 -78 -15
-83 -12 -4 3 -5 24 -1 47 4 22 7 51 7 63 0 16 12 26 52 41 71 27 71 27 86 -20z
m2236 -137 c5 -5 27 -11 49 -13 22 -2 39 -6 38 -10 -2 -5 -3 -66 -3 -138 l0
-130 -32 3 c-20 2 -32 8 -30 16 2 8 -4 10 -18 6 -19 -6 -20 -2 -20 122 0 87
-4 133 -12 141 -9 9 -9 12 3 12 8 0 19 -4 25 -9z m-2242 -154 c8 -84 13 -129
21 -183 3 -17 -1 -48 -9 -70 l-15 -39 0 81 c-1 49 -6 87 -14 98 -12 17 -15 17
-52 -5 -22 -13 -43 -28 -47 -34 -5 -6 -8 -6 -8 0 0 16 13 30 43 42 26 12 37
33 18 33 -6 0 -8 9 -6 20 2 11 0 18 -5 15 -4 -3 -10 0 -12 6 -5 15 -58 -7 -58
-25 0 -8 7 -22 16 -30 8 -9 12 -21 8 -27 -10 -17 -31 27 -39 82 -7 48 6 83 33
94 7 2 11 1 8 -4 -3 -5 1 -12 10 -15 12 -4 14 -1 9 14 -4 11 -2 20 3 20 6 0
12 -5 14 -11 2 -6 12 -2 23 9 38 35 52 18 59 -71z m2299 -172 c4 -8 4 -23 2
-33 -3 -18 -1 -18 38 -5 50 18 112 11 165 -16 20 -11 33 -20 29 -21 -5 0 -18
5 -30 12 -40 21 -99 27 -114 12 -8 -8 -27 -14 -42 -14 -15 0 -32 -5 -39 -12
-7 -7 -24 -12 -40 -13 -21 0 -34 -11 -59 -49 -18 -26 -33 -53 -33 -60 1 -6 8
3 17 19 19 38 60 78 67 66 3 -5 0 -11 -8 -14 -23 -9 -67 -111 -73 -170 -4 -40
-1 -68 11 -98 9 -23 15 -44 12 -46 -2 -2 -14 20 -25 49 -16 40 -20 45 -15 18
10 -54 39 -113 70 -142 33 -31 48 -37 52 -23 1 6 -1 10 -5 10 -11 1 -73 61
-73 71 0 4 12 -4 28 -18 15 -14 39 -33 55 -43 20 -13 25 -21 17 -30 -8 -9 -6
-14 6 -19 9 -4 14 -9 11 -12 -7 -8 -58 20 -96 52 -18 15 -44 50 -58 78 -22 43
-27 65 -27 136 -1 74 3 93 27 142 15 31 41 68 58 82 23 20 29 33 29 65 0 34 3
41 19 41 10 0 21 -7 24 -15z m-2378 -357 c3 -3 -2 -34 -12 -70 -20 -76 -14
-98 25 -98 31 0 58 23 64 55 2 11 10 20 18 20 11 0 18 -18 24 -59 11 -66 -4
-140 -32 -163 -9 -8 -11 -11 -3 -7 8 4 12 3 8 -3 -3 -5 -31 -22 -62 -37 -45
-23 -64 -28 -101 -23 -141 15 -227 197 -147 310 41 60 95 87 160 83 29 -1 55
-5 58 -8z"/>
</g>
</svg>
